<svg width="185" height="71" viewBox="0 0 185 71" fill="none" xmlns="http://www.w3.org/2000/svg">
<path fill-rule="evenodd" clip-rule="evenodd" d="M6.12341 0.149944C-0.589087 1.17808 0.0761516 7.6769 0.0761516 11.7189C0.0761516 16.063 -0.137528 62.803 0.150984 64.768C0.495704 67.1165 2.09417 69.0399 3.7116 69.8944C5.94085 71.0722 8.97128 70.7795 11.7195 70.7795C16.0636 70.7795 62.8036 70.9931 64.7686 70.7046C67.1225 70.3591 69.0348 68.7638 69.8941 67.1437C71.1634 64.7505 70.7801 62.0786 70.7802 59.1362C70.7803 54.7944 70.9936 8.05118 70.7054 6.08702C70.3606 3.73867 68.7622 1.81522 67.1447 0.960721C64.9155 -0.217192 61.8851 0.0756693 59.1369 0.0756693C54.8748 0.0756693 7.99322 -0.13656 6.12353 0.149833L6.12341 0.149944Z" fill="#3081C2"/>
<path fill-rule="evenodd" clip-rule="evenodd" d="M27.5754 27.5701C24.335 27.8623 19.877 27.6439 16.5185 27.6232C12.2095 27.5966 13.0701 28.6424 13.0701 35.4551C13.0701 37.2369 13.0052 39.134 13.0605 40.9C13.1311 43.1672 14.185 43.3015 16.2691 43.2886C20.0557 43.2652 23.8475 43.2834 27.6347 43.2834C27.6444 47.0068 27.6885 50.7329 27.6839 54.4558C27.6787 58.7268 28.4899 57.9006 35.5303 57.9006C45.0211 57.9006 43.3559 60.1408 43.4272 43.3477C47.1307 43.3477 50.8368 43.334 54.5398 43.3529C56.5458 43.3633 57.7892 43.3846 57.98 41.3834L58 30.2605C57.9588 27.7986 57.2294 27.6718 54.7849 27.6831C51.0389 27.7005 47.2923 27.6904 43.5462 27.6904C42.964 25.0815 43.9959 22.9596 42.7918 20.6132C39.6731 19.8774 39.835 21.5569 39.8722 24.3554C39.8978 26.276 39.4091 29.832 40.6868 30.7992C41.8665 31.6922 52.0052 31.0259 54.4775 31.2556V39.6551C51.9665 39.8882 41.7504 39.1063 40.5637 40.2323C39.4455 41.2932 39.8983 45.3171 39.8896 47.0483C39.8775 49.4755 39.8645 51.9026 39.8546 54.3298L31.2684 54.3205C31.2582 51.8543 31.6994 41.4927 30.6605 40.3129C29.5704 39.0749 19.2045 39.7136 16.6441 39.7136V31.1971C19.0726 31.1971 21.5012 31.1971 23.9297 31.1971C32.4879 31.1971 31.0716 33.5616 31.2059 16.5809C33.0478 16.5809 41.176 16.8582 42.2968 16.3341C43.4654 15.7875 43.7502 13.6796 42.0855 13.1318L30.582 13C28.2246 13.0023 27.6916 13.6603 27.6753 15.9553C27.648 19.8269 27.607 23.6985 27.5754 27.5702V27.5701Z" fill="white"/>
<path fill-rule="evenodd" clip-rule="evenodd" d="M103.338 20.4211H123.117C122.495 21.9406 107.152 44.793 105.484 47.3345C104.301 49.1363 103.315 49.8436 103.325 52.4864C103.334 54.9301 103.338 57.3729 103.338 59.817C108.117 60.1788 130.887 59.8929 137.43 59.89L137.374 49.496L117.654 49.497C119.952 44.906 137.43 20.9181 137.43 18.3389V10.0281L103.338 10.0318L103.338 20.4209L103.338 20.4211Z" fill="#3081C2"/>
<path fill-rule="evenodd" clip-rule="evenodd" d="M158.507 59.7407L170.135 59.9004C170.135 42.2422 168.739 48.3465 175.311 32.8258L184.762 10.0947L173.131 10.0237L164.639 33.1292L155.829 10.0532L143.873 10.0284L153.251 32.6806C159.859 48.1767 158.507 42.7643 158.507 59.7407H158.507Z" fill="#3081C2"/>
<path fill-rule="evenodd" clip-rule="evenodd" d="M82.0342 13.7222L82.0281 59.89H93.7245L93.7253 10L82 10.0146L82.0342 13.7222Z" fill="#3081C2"/>
</svg>
