<?xml version="1.0" encoding="iso-8859-1"?>
<!-- Generator: Adobe Illustrator 16.0.0, SVG Export Plug-In . SVG Version: 6.00 Build 0)  -->
<!DOCTYPE svg PUBLIC "-//W3C//DTD SVG 1.1//EN" "http://www.w3.org/Graphics/SVG/1.1/DTD/svg11.dtd">
<svg version="1.1" id="Capa_1" xmlns="http://www.w3.org/2000/svg" xmlns:xlink="http://www.w3.org/1999/xlink" x="0px" y="0px"
	 width="32px" height="32px" viewBox="0 0 32 32" style="enable-background:new 0 0 32 32;" xml:space="preserve">
<g>
	<g>
		<path d="M21.947,6.05V5.192c0-0.722-0.584-1.306-1.307-1.306h-1.927C18.896,3.513,19,3.11,19,2.678C19,1.204,17.802,0,16.328,0
			c-1.473,0-2.672,1.206-2.672,2.681c0,0.433,0.104,0.833,0.287,1.206h-2.582c-0.722,0-1.306,0.584-1.306,1.306V6.05h-3.29
			c-1.169,0-2.118,0.948-2.118,2.117v21.715c0,1.17,0.948,2.118,2.118,2.118h18.472c1.17,0,2.117-0.948,2.117-2.118V8.167
			c0-1.169-0.949-2.117-2.117-2.117H21.947z M14.736,2.679c0-0.879,0.715-1.599,1.592-1.599c0.877,0,1.592,0.721,1.592,1.601
			c0,0.48-0.213,0.915-0.547,1.206h-2.089C14.948,3.596,14.736,3.159,14.736,2.679z M25.191,28.738c0,0.606-0.492,1.1-1.099,1.1
			H7.909c-0.607,0-1.099-0.492-1.099-1.1V9.311c0-0.607,0.492-1.099,1.099-1.099h2.145c0,0.597,0.484,1.081,1.081,1.081h9.73
			c0.598,0,1.082-0.484,1.082-1.081h2.146c0.606,0,1.099,0.491,1.099,1.099V28.738z"/>
		<path d="M15.13,19.572l-1.318-1.32c-0.148-0.148-0.35-0.232-0.56-0.232c-0.21,0-0.411,0.084-0.56,0.232l-0.409,0.409
			c-0.309,0.309-0.309,0.81,0,1.119l2.315,2.317c0.151,0.15,0.358,0.234,0.571,0.23c0.214-0.003,0.418-0.092,0.565-0.248
			l4.021-4.264c0.3-0.317,0.286-0.817-0.032-1.118l-0.42-0.396c-0.152-0.145-0.355-0.222-0.566-0.216
			c-0.209,0.006-0.408,0.096-0.553,0.248L15.13,19.572z"/>
		<path d="M16,10.903c-4.356,0-7.899,3.548-7.899,7.91c0,4.359,3.543,7.908,7.899,7.908c4.355,0,7.9-3.549,7.9-7.908
			C23.9,14.451,20.357,10.903,16,10.903z M16,24.561c-3.165,0-5.739-2.578-5.739-5.748c0-3.17,2.574-5.749,5.739-5.749
			c3.164,0,5.74,2.578,5.74,5.749C21.74,21.982,19.164,24.561,16,24.561z"/>
	</g>
</g>
<g>
</g>
<g>
</g>
<g>
</g>
<g>
</g>
<g>
</g>
<g>
</g>
<g>
</g>
<g>
</g>
<g>
</g>
<g>
</g>
<g>
</g>
<g>
</g>
<g>
</g>
<g>
</g>
<g>
</g>
</svg>
